<?xml version="1.0" encoding="UTF-8"?>
<svg id="Calque_2" data-name="Calque 2" xmlns="http://www.w3.org/2000/svg" viewBox="0 0 84 95.72">
  <defs>
    <style>
      .cls-1 {
        fill: #D4AF37;
      }
    </style>
  </defs>
  <g id="Calque_1-2" data-name="Calque 1">
    <g>
      <path class="cls-1" d="M43.99,35.8c6.95.7,10.86,7.07,8.98,13.67-1.05,3.69-3.75,5.58-7.19,6.9,3.98,6.31,7.48,12.91,11.31,19.31,2.42,4.04,4.92,8.46,7.62,12.29,2.06,2.93,4.41,5.7,7.37,7.75-5.23-.36-8.57-4.5-11.42-8.39-7.04-9.58-12.44-20.27-18.89-30.24-.28-.6-2.51-1.07-2.56-1.29-.16-.73,2.07-.42,2.53-.47,2.88-.29,5.06-.96,6.46-3.68,2.17-4.24,1.53-12.23-3.63-13.98-2.22-.75-4.45-.05-6.67-.56.06.19-.19.4-.19.47v33.44c0,.84.62,2.11,1.37,2.57.48.3,1.51.32,1.45.9h-8.83c-.06-.58.97-.6,1.45-.9.89-.55,1.05-1.21,1.18-2.2-.53-10.24.72-21.22.01-31.38-.15-2.19-.39-2.98-2.41-3.79-.28-.12-.51.11-.41-.42h12.49Z"/>
      <path class="cls-1" d="M62.9,25.63c.05.07.52.15.71.32,1.94,1.61,2.13,4.46-.08,5.91-3.52,2.3-7.8-2.56-4.14-5.83.36-.32.97-.31,1.03-.84.02-6.09.72-11.68-3.47-16.63C49.26-.53,31.69.31,25.3,10.53c-2.92,4.67-1.78,9.46-2.18,14.67,2.35,1.37,3.36,5.02.71,6.59-4.6,2.72-8.04-4.43-3.02-6.44-.04-6.44-.77-11.72,3.3-17.14C34.45-5.63,61.63-1.51,62.88,17.1c.08,1.21-.21,8.17.02,8.53ZM21.31,26.26c-3.19.55-2.63,5.58.87,5.21s2.87-5.85-.87-5.21ZM63.56,27.04c-3.19-3.16-6.88,2.97-3.04,4.27,2.97,1.01,4.92-2.41,3.04-4.27Z"/>
      <path class="cls-1" d="M66.44,88.02h7.04c3.84,0,8.14-3.63,8.17-7.61-1.91-17.6-4.63-35.15-6.81-52.74-.17-1.61-2.49-3.33-3.99-3.33h-6.67v-2.25h6.67c2.55,0,6,2.29,6.21,5.06,1.94,16.79,4.94,33.5,6.82,50.28,1.09,9.76-6.33,14.02-15.3,12.85-.96-.13-1.59-1.57-2.15-2.26Z"/>
      <path class="cls-1" d="M9.43,90.28c-3.53-.29-7.4-1.99-8.83-5.45-1.24-3.01-.22-5.79-.06-8.88.17-.59,1.91-.91,2.5-1.07-.03,3.92-2.08,8,1.32,11.08,1.69,1.53,3.99,1.89,6.18,2.08l48.49-.02.55.2,1.41,2.06H9.43Z"/>
      <polygon class="cls-1" points="59.12 24.34 24.36 24.34 24.54 22.17 58.65 22.09 59.09 22.4 59.12 24.34"/>
      <path class="cls-1" d="M19.29,24.34h-6.67c-1.17,0-3.12,1.12-3.51,2.31l-2.21,16.54-2.35.69,2.02-17.14c1.49-5.55,8.05-4.71,12.55-4.57l.18,2.17Z"/>
      <polygon class="cls-1" points="19.48 42.57 3.7 49.33 4.3 45.23 19.48 42.57"/>
      <path class="cls-1" d="M16.47,67.36l-15.59,6.57c-.14-.16.22-3.48.47-3.76l.22-.15,14.9-2.66Z"/>
      <path class="cls-1" d="M17.6,59.1l-15.97,6.57c.36-.59.21-3.43.56-3.67l15.41-2.9Z"/>
      <path class="cls-1" d="M18.35,50.83l-15.78,6.76c.3-.67.26-3.67.68-3.96l15.1-2.8Z"/>
    </g>
  </g>
</svg>
